<svg xmlns="http://www.w3.org/2000/svg" width="18" height="13" viewBox="0 0 18 13">
    <g fill="#FFF" fill-rule="evenodd">
        <path fill-rule="nonzero" d="M.025 1.9A2.252 2.252 0 0 0 0 2.235v8.034c0 1.208 1.027 2.236 2.235 2.236h13.23c1.208 0 2.235-1.028 2.235-2.236V2.235c0-.106-.008-.219-.023-.334l-6.504 5.45-.008.006c-.693.567-1.557.797-2.343.784-.777-.013-1.635-.267-2.32-.872L.025 1.9z"/>
        <path d="M2.236 0h13.23c.482 0 .966.181 1.328.423L10.09 6.04c-.665.544-1.813.544-2.477-.06L.906.423C1.27.18 1.752 0 2.236 0z"/>
    </g>
</svg>
