<svg xmlns="http://www.w3.org/2000/svg" width="16" height="19" viewBox="0 0 16 19">
    <path fill="#FFF" fill-rule="evenodd" d="M8.1 0C5.793 0 3.908.71 2.59 1.947 1.274 3.184.6 4.877.6 6.687c0 3.464 1.8 6.333 3.496 8.275.857.982 1.71 1.755 2.351 2.285a17.676 17.676 0 0 0 1.07.817l.019.012.006.004.002.002c.327.218.752.224 1.086.016l-.53-.848c.53.848.531.847.531.847l.002-.001.006-.004.019-.012a16.121 16.121 0 0 0 1.078-.782c.643-.51 1.501-1.26 2.361-2.227 1.708-1.922 3.503-4.79 3.503-8.383C15.6 3.022 12.647 0 8.1 0zm0 17.25l-.556.832.556-.832zM8 9.47a2.823 2.823 0 1 0 0-5.646A2.823 2.823 0 0 0 8 9.47z"/>
</svg>
