<svg xmlns="http://www.w3.org/2000/svg" width="18" height="18" viewBox="0 0 18 18">
    <path fill="#FFF" fill-rule="nonzero" d="M16.711 10.345a7.655 7.655 0 0 0-8.756-8.756 4.626 4.626 0 0 0-6.366 6.367 7.654 7.654 0 0 0 8.756 8.756 4.626 4.626 0 0 0 6.367-6.367zm-3.927 2.286c-.324.467-.8.83-1.42 1.093-.624.263-1.36.393-2.21.393-1.02 0-1.863-.178-2.529-.538a3.276 3.276 0 0 1-1.15-1.035c-.297-.432-.447-.854-.447-1.267 0-.243.093-.454.274-.627a.972.972 0 0 1 .694-.26c.227 0 .422.068.581.204.158.135.29.332.398.592.13.301.27.553.42.754.15.198.359.364.63.493.268.13.626.195 1.073.195.611 0 1.106-.132 1.484-.393.38-.263.563-.584.563-.971 0-.309-.099-.554-.3-.745a2.003 2.003 0 0 0-.794-.445 14.304 14.304 0 0 0-1.32-.33c-.74-.162-1.36-.35-1.861-.566-.503-.217-.903-.514-1.2-.888-.296-.378-.445-.848-.445-1.405 0-.531.157-1.006.47-1.42.313-.413.766-.73 1.356-.952.588-.22 1.281-.33 2.075-.33.634 0 1.183.073 1.648.219.463.147.85.341 1.158.585.307.243.533.5.676.768.143.27.214.534.214.791 0 .24-.092.456-.273.646a.903.903 0 0 1-.682.287c-.243 0-.434-.056-.566-.175-.129-.115-.264-.298-.41-.553-.186-.356-.408-.633-.665-.831-.251-.195-.666-.296-1.242-.295-.533 0-.96.109-1.281.322-.324.216-.48.468-.48.762 0 .184.054.34.16.473.109.134.26.25.453.348.194.1.391.177.59.232.2.057.532.14.994.248.58.125 1.106.264 1.578.417.472.152.874.337 1.207.557.335.219.597.498.784.835.188.338.282.75.282 1.236 0 .585-.162 1.11-.487 1.576z"/>
</svg>
